# xmcd
#
# Track frame offsets:
#	151
#	15638
#	27229
#	39028
#	52465
#	65166
#	88577
#	99172
#	112119
#	130380
#	142073
#	162584
#	170583
#	186314
#	200895
#	211430
#	230899
#	241226
#	257397
#	277010
#
# Disc length: 4049 seconds
#
# Revision: 3
# Processed by: cddbd v1.4PL0 Copyright (c) Steve Scherf et al.
# Submitted via: audiograbber 1.80.04
#
DISCID=360fcf14
DTITLE=Various Artist - Daraiche, Les-30 Ans De Succès Vol 1
DYEAR=1900
DGENRE=Bass
TTITLE0=Julie Daraiche - Jambalaya
TTITLE1=Paul Daraiche - Le Train De Notre Amour
TTITLE2=Dani Daraiche - Ton Souvenir
TTITLE3=Katia Daraiche - C'était L'amour
TTITLE4=Julie Daraiche - Priere D'une Mere
TTITLE5=Paul Daraiche - Rosalie
TTITLE6=Dani Daraiche - Mon Pays
TTITLE7=Katia Daraiche - En M'attendant
TTITLE8=Julie Daraiche - Le Dernier roman
TTITLE9=Paul Daraiche - Le Chasseur
TTITLE10=Dani Daraiche - Un Jour Ma Mere M'a Dit
TTITLE11=Julie Daraiche - Comme Un Oiseau Perdu
TTITLE12=Paul Daraiche - J'ai Tant Cherché
TTITLE13=Katia Daraiche - Viens Pres De Moi
TTITLE14=Julie Daraiche - Je Ne T'avais Pas Tout A Fait Oublié
TTITLE15=Paul Daraiche - Quand J'ai besoin
TTITLE16=Julie Daraiche - Un Verre, Une bouteille
TTITLE17=Dani Daraiche - Ce Soir
TTITLE18=Paul Daraiche - Laisse-moi T'aimer
TTITLE19=La Famille - La Marche Pour Le Saguenay
EXTD=
EXTT0=
EXTT1=
EXTT2=
EXTT3=
EXTT4=
EXTT5=
EXTT6=
EXTT7=
EXTT8=
EXTT9=
EXTT10=
EXTT11=
EXTT12=
EXTT13=
EXTT14=
EXTT15=
EXTT16=
EXTT17=
EXTT18=
EXTT19=
PLAYORDER=
